<svg version="1.1" viewBox="0.0 0.0 779.0367454068241 243.4435695538058" fill="none" stroke="none" stroke-linecap="square" stroke-miterlimit="10" xmlns:xlink="http://www.w3.org/1999/xlink" xmlns="http://www.w3.org/2000/svg"><clipPath id="p.0"><path d="m0 0l779.03674 0l0 243.44357l-779.03674 0l0 -243.44357z" clip-rule="nonzero"/></clipPath><g clip-path="url(#p.0)"><path fill="#000000" fill-opacity="0.0" d="m0 0l779.03674 0l0 243.44357l-779.03674 0z" fill-rule="evenodd"/><path fill="#000000" fill-opacity="0.0" d="m41.867905 162.76633l727.685 0" fill-rule="evenodd"/><path stroke="#000000" stroke-width="3.0" stroke-linejoin="round" stroke-linecap="butt" d="m41.867905 162.76633l727.685 0" fill-rule="evenodd"/><path fill="#000000" fill-opacity="0.0" d="m50.849533 13.587849c62.71089 0 127.94974 14.40419 183.00336 46.204723c21.84172 12.616402 44.296402 25.001968 63.02025 42.351707c13.627411 12.627327 25.775574 28.383308 42.41916 35.937004c46.963654 21.314499 101.9216 20.0941 152.70395 14.118118c61.894073 -7.2836 112.01236 -59.653084 172.09311 -77.00526c23.387878 -6.7547455 48.944763 -6.3181534 72.716064 -1.2834625c7.5371704 1.5963593 15.341064 1.2834625 23.027527 1.2834625c2.4573975 0 9.729248 1.2834702 7.2718506 1.2834702" fill-rule="evenodd"/><path stroke="#0000ff" stroke-width="1.0" stroke-linejoin="round" stroke-linecap="butt" d="m50.849533 13.587849c62.71089 0 127.94974 14.40419 183.00336 46.204723c21.84172 12.616402 44.296402 25.001968 63.02025 42.351707c13.627411 12.627327 25.775574 28.383308 42.41916 35.937004c46.963654 21.314499 101.9216 20.0941 152.70395 14.118118c61.894073 -7.2836 112.01236 -59.653084 172.09311 -77.00526c23.387878 -6.7547455 48.944763 -6.3181534 72.716064 -1.2834625c7.5371704 1.5963593 15.341064 1.2834625 23.027527 1.2834625c2.4573975 0 9.729248 1.2834702 7.2718506 1.2834702" fill-rule="evenodd"/><path fill="#000000" fill-opacity="0.0" d="m349.24323 201.96588l121.921265 0l0 53.51181l-121.921265 0z" fill-rule="evenodd"/><path fill="#000000" d="m372.24683 234.00587l-3.296875 -17.1875l2.203125 0l2.0 10.25q0.546875 2.78125 0.71875 4.5q1.078125 -2.203125 1.765625 -3.5l6.125 -11.25l2.375 0l-9.421875 17.1875l-2.46875 0zm10.0078125 -4.71875q0 -3.65625 2.140625 -6.046875q1.78125 -1.96875 4.640625 -1.96875q2.25 0 3.625 1.40625q1.390625 1.40625 1.390625 3.796875q0 2.15625 -0.875 4.0q-0.859375 1.84375 -2.46875 2.828125q-1.59375 0.984375 -3.359375 0.984375q-1.453125 0 -2.65625 -0.625q-1.1875 -0.625 -1.8125 -1.75q-0.625 -1.140625 -0.625 -2.625zm2.125 -0.21875q0 1.765625 0.84375 2.671875q0.84375 0.90625 2.140625 0.90625q0.6875 0 1.34375 -0.265625q0.671875 -0.28125 1.25 -0.84375q0.578125 -0.5625 0.96875 -1.28125q0.40625 -0.734375 0.65625 -1.5625q0.359375 -1.15625 0.359375 -2.21875q0 -1.6875 -0.84375 -2.625q-0.84375 -0.9375 -2.140625 -0.9375q-1.0 0 -1.828125 0.484375q-0.8125 0.46875 -1.46875 1.390625q-0.65625 0.90625 -0.96875 2.125q-0.3125 1.203125 -0.3125 2.15625zm10.691406 4.9375l3.578125 -17.1875l2.125 0l-3.59375 17.1875l-2.109375 0zm13.878906 -1.546875q-1.09375 0.953125 -2.125 1.390625q-1.015625 0.4375 -2.171875 0.4375q-1.71875 0 -2.78125 -1.015625q-1.046875 -1.015625 -1.046875 -2.59375q0 -1.046875 0.46875 -1.84375q0.46875 -0.8125 1.25 -1.296875q0.796875 -0.484375 1.9375 -0.6875q0.703125 -0.140625 2.703125 -0.21875q2.0 -0.09375 2.875 -0.4375q0.234375 -0.859375 0.234375 -1.4375q0 -0.734375 -0.53125 -1.15625q-0.734375 -0.59375 -2.15625 -0.59375q-1.34375 0 -2.1875 0.59375q-0.84375 0.59375 -1.234375 1.6875l-2.140625 -0.1875q0.65625 -1.859375 2.078125 -2.84375q1.421875 -0.984375 3.59375 -0.984375q2.296875 0 3.65625 1.109375q1.03125 0.8125 1.03125 2.125q0 1.0 -0.296875 2.3125l-0.6875 3.09375q-0.328125 1.484375 -0.328125 2.40625q0 0.578125 0.25 1.6875l-2.140625 0q-0.171875 -0.609375 -0.25 -1.546875zm0.78125 -4.765625q-0.4375 0.1875 -0.953125 0.28125q-0.5 0.09375 -1.703125 0.1875q-1.84375 0.171875 -2.609375 0.421875q-0.765625 0.25 -1.15625 0.8125q-0.375 0.546875 -0.375 1.203125q0 0.890625 0.609375 1.46875q0.609375 0.578125 1.75 0.578125q1.0625 0 2.03125 -0.546875q0.96875 -0.5625 1.53125 -1.5625q0.5625 -1.0 0.875 -2.84375zm9.128906 4.59375l-0.34375 1.734375q-0.765625 0.203125 -1.484375 0.203125q-1.265625 0 -2.015625 -0.625q-0.5625 -0.46875 -0.5625 -1.28125q0 -0.40625 0.3125 -1.890625l1.515625 -7.234375l-1.6875 0l0.34375 -1.640625l1.671875 0l0.65625 -3.046875l2.421875 -1.46875l-0.953125 4.515625l2.09375 0l-0.359375 1.640625l-2.078125 0l-1.4375 6.890625q-0.265625 1.3125 -0.265625 1.5625q0 0.375 0.21875 0.578125q0.21875 0.203125 0.703125 0.203125q0.703125 0 1.25 -0.140625zm4.7304688 -13.0625l0.5 -2.40625l2.109375 0l-0.5 2.40625l-2.109375 0zm-3.09375 14.78125l2.59375 -12.453125l2.125 0l-2.59375 12.453125l-2.125 0zm5.2539062 0l3.578125 -17.1875l2.125 0l-3.59375 17.1875l-2.109375 0zm8.503906 -14.78125l0.5 -2.40625l2.109375 0l-0.5 2.40625l-2.109375 0zm-3.09375 14.78125l2.59375 -12.453125l2.125 0l-2.59375 12.453125l-2.125 0zm10.363281 -1.71875l-0.34375 1.734375q-0.765625 0.203125 -1.484375 0.203125q-1.265625 0 -2.015625 -0.625q-0.5625 -0.46875 -0.5625 -1.28125q0 -0.40625 0.3125 -1.890625l1.515625 -7.234375l-1.6875 0l0.34375 -1.640625l1.671875 0l0.65625 -3.046875l2.421875 -1.46875l-0.953125 4.515625l2.09375 0l-0.359375 1.640625l-2.078125 0l-1.4375 6.890625q-0.265625 1.3125 -0.265625 1.5625q0 0.375 0.21875 0.578125q0.21875 0.203125 0.703125 0.203125q0.703125 0 1.25 -0.140625zm0.91796875 6.53125l0.125 -2.0q0.65625 0.1875 1.28125 0.1875q0.640625 0 1.046875 -0.296875q0.515625 -0.375 1.125 -1.453125l0.671875 -1.21875l-2.0625 -12.484375l2.078125 0l0.9375 6.296875q0.28125 1.859375 0.484375 3.734375l5.5625 -10.03125l2.21875 0l-7.9375 14.109375q-1.140625 2.0625 -2.03125 2.71875q-0.890625 0.671875 -2.0625 0.671875q-0.734375 0 -1.4375 -0.234375z" fill-rule="nonzero"/><path fill="#000000" fill-opacity="0.0" d="m41.86785 162.76633l77.00787 0l0 53.51181l-77.00787 0z" fill-rule="evenodd"/><path fill="#000000" d="m57.886116 185.38945l1.65625 -0.140625q0.125 1.0 0.546875 1.640625q0.4375 0.640625 1.34375 1.046875q0.921875 0.390625 2.0625 0.390625q1.0 0 1.78125 -0.296875q0.78125 -0.296875 1.15625 -0.8125q0.375 -0.53125 0.375 -1.15625q0 -0.625 -0.375 -1.09375q-0.359375 -0.46875 -1.1875 -0.796875q-0.546875 -0.203125 -2.390625 -0.640625q-1.828125 -0.453125 -2.5625 -0.84375q-0.96875 -0.5 -1.4375 -1.234375q-0.46875 -0.75 -0.46875 -1.671875q0 -1.0 0.578125 -1.875q0.578125 -0.890625 1.671875 -1.34375q1.109375 -0.453125 2.453125 -0.453125q1.484375 0 2.609375 0.484375q1.140625 0.46875 1.75 1.40625q0.609375 0.921875 0.65625 2.09375l-1.6875 0.125q-0.140625 -1.265625 -0.9375 -1.90625q-0.78125 -0.65625 -2.3125 -0.65625q-1.609375 0 -2.34375 0.59375q-0.734375 0.59375 -0.734375 1.421875q0 0.71875 0.53125 1.171875q0.5 0.46875 2.65625 0.96875q2.15625 0.484375 2.953125 0.84375q1.171875 0.53125 1.71875 1.359375q0.5625 0.828125 0.5625 1.90625q0 1.0625 -0.609375 2.015625q-0.609375 0.9375 -1.75 1.46875q-1.140625 0.515625 -2.578125 0.515625q-1.8125 0 -3.046875 -0.53125q-1.21875 -0.53125 -1.921875 -1.59375q-0.6875 -1.0625 -0.71875 -2.40625zm16.412323 2.828125l0.234375 1.453125q-0.6875 0.140625 -1.234375 0.140625q-0.890625 0 -1.390625 -0.28125q-0.484375 -0.28125 -0.6875 -0.734375q-0.203125 -0.46875 -0.203125 -1.9375l0 -5.578125l-1.203125 0l0 -1.265625l1.203125 0l0 -2.390625l1.625 -0.984375l0 3.375l1.65625 0l0 1.265625l-1.65625 0l0 5.671875q0 0.6875 0.078125 0.890625q0.09375 0.203125 0.28125 0.328125q0.203125 0.109375 0.578125 0.109375q0.265625 0 0.71875 -0.0625zm7.917679 0.28125q-0.921875 0.765625 -1.765625 1.09375q-0.828125 0.3125 -1.796875 0.3125q-1.59375 0 -2.453125 -0.78125q-0.859375 -0.78125 -0.859375 -1.984375q0 -0.71875 0.328125 -1.296875q0.328125 -0.59375 0.84375 -0.9375q0.53125 -0.359375 1.1875 -0.546875q0.46875 -0.125 1.453125 -0.25q1.984375 -0.234375 2.921875 -0.5625q0.015625 -0.34375 0.015625 -0.421875q0 -1.0 -0.46875 -1.421875q-0.625 -0.546875 -1.875 -0.546875q-1.15625 0 -1.703125 0.40625q-0.546875 0.40625 -0.8125 1.421875l-1.609375 -0.21875q0.21875 -1.015625 0.71875 -1.640625q0.5 -0.640625 1.453125 -0.984375q0.953125 -0.34375 2.1875 -0.34375q1.25 0 2.015625 0.296875q0.78125 0.28125 1.140625 0.734375q0.375 0.4375 0.515625 1.109375q0.078125 0.421875 0.078125 1.515625l0 2.1875q0 2.28125 0.109375 2.890625q0.109375 0.59375 0.40625 1.15625l-1.703125 0q-0.265625 -0.515625 -0.328125 -1.1875zm-0.140625 -3.671875q-0.890625 0.375 -2.671875 0.625q-1.015625 0.140625 -1.4375 0.328125q-0.421875 0.1875 -0.65625 0.53125q-0.21875 0.34375 -0.21875 0.78125q0 0.65625 0.5 1.09375q0.5 0.4375 1.453125 0.4375q0.9375 0 1.671875 -0.40625q0.75 -0.421875 1.09375 -1.140625q0.265625 -0.5625 0.265625 -1.640625l0 -0.609375zm7.781967 3.390625l0.234375 1.453125q-0.6875 0.140625 -1.234375 0.140625q-0.890625 0 -1.390625 -0.28125q-0.484375 -0.28125 -0.6875 -0.734375q-0.203125 -0.46875 -0.203125 -1.9375l0 -5.578125l-1.203125 0l0 -1.265625l1.203125 0l0 -2.390625l1.625 -0.984375l0 3.375l1.65625 0l0 1.265625l-1.65625 0l0 5.671875q0 0.6875 0.078125 0.890625q0.09375 0.203125 0.28125 0.328125q0.203125 0.109375 0.578125 0.109375q0.265625 0 0.71875 -0.0625zm1.6051788 -10.0l0 -1.890625l1.640625 0l0 1.890625l-1.640625 0zm0 11.46875l0 -9.671875l1.640625 0l0 9.671875l-1.640625 0zm10.457321 -3.546875l1.609375 0.21875q-0.265625 1.65625 -1.359375 2.609375q-1.078125 0.9375 -2.671875 0.9375q-1.984375 0 -3.1875 -1.296875q-1.203125 -1.296875 -1.203125 -3.71875q0 -1.578125 0.515625 -2.75q0.515625 -1.171875 1.578125 -1.75q1.0625 -0.59375 2.3125 -0.59375q1.578125 0 2.578125 0.796875q1.0 0.796875 1.28125 2.265625l-1.59375 0.234375q-0.234375 -0.96875 -0.8125 -1.453125q-0.578125 -0.5 -1.390625 -0.5q-1.234375 0 -2.015625 0.890625q-0.78125 0.890625 -0.78125 2.8125q0 1.953125 0.75 2.84375q0.75 0.875 1.953125 0.875q0.96875 0 1.609375 -0.59375q0.65625 -0.59375 0.828125 -1.828125z" fill-rule="nonzero"/><path fill="#000000" fill-opacity="0.0" d="m647.6395 169.35162l121.921265 0l0 53.51181l-121.921265 0z" fill-rule="evenodd"/><path fill="#000000" d="m666.92993 191.97475l1.65625 -0.140625q0.125 1.0 0.546875 1.640625q0.4375 0.640625 1.34375 1.046875q0.921875 0.390625 2.0625 0.390625q1.0 0 1.78125 -0.296875q0.78125 -0.296875 1.15625 -0.8125q0.375 -0.53125 0.375 -1.15625q0 -0.625 -0.375 -1.09375q-0.359375 -0.46875 -1.1875 -0.796875q-0.546875 -0.203125 -2.390625 -0.640625q-1.828125 -0.453125 -2.5625 -0.84375q-0.96875 -0.5 -1.4375 -1.234375q-0.46875 -0.75 -0.46875 -1.671875q0 -1.0 0.578125 -1.875q0.578125 -0.890625 1.671875 -1.34375q1.109375 -0.453125 2.453125 -0.453125q1.484375 0 2.609375 0.484375q1.140625 0.46875 1.75 1.40625q0.609375 0.921875 0.65625 2.09375l-1.6875 0.125q-0.140625 -1.265625 -0.9375 -1.90625q-0.78125 -0.65625 -2.3125 -0.65625q-1.609375 0 -2.34375 0.59375q-0.734375 0.59375 -0.734375 1.421875q0 0.71875 0.53125 1.171875q0.5 0.46875 2.65625 0.96875q2.15625 0.484375 2.953125 0.84375q1.171875 0.53125 1.71875 1.359375q0.5625 0.828125 0.5625 1.90625q0 1.0625 -0.609375 2.015625q-0.609375 0.9375 -1.75 1.46875q-1.140625 0.515625 -2.578125 0.515625q-1.8125 0 -3.046875 -0.53125q-1.21875 -0.53125 -1.921875 -1.59375q-0.6875 -1.0625 -0.71875 -2.40625zm16.412292 2.828125l0.234375 1.453125q-0.6875 0.140625 -1.234375 0.140625q-0.890625 0 -1.390625 -0.28125q-0.484375 -0.28125 -0.6875 -0.734375q-0.203125 -0.46875 -0.203125 -1.9375l0 -5.578125l-1.203125 0l0 -1.265625l1.203125 0l0 -2.390625l1.625 -0.984375l0 3.375l1.65625 0l0 1.265625l-1.65625 0l0 5.671875q0 0.6875 0.078125 0.890625q0.09375 0.203125 0.28125 0.328125q0.203125 0.109375 0.578125 0.109375q0.265625 0 0.71875 -0.0625zm1.5895386 1.46875l0 -9.671875l1.46875 0l0 1.46875q0.5625 -1.03125 1.03125 -1.359375q0.484375 -0.328125 1.0625 -0.328125q0.828125 0 1.6875 0.53125l-0.5625 1.515625q-0.609375 -0.359375 -1.203125 -0.359375q-0.546875 0 -0.96875 0.328125q-0.421875 0.328125 -0.609375 0.890625q-0.28125 0.875 -0.28125 1.921875l0 5.0625l-1.625 0zm12.8533325 -3.109375l1.6875 0.203125q-0.40625 1.484375 -1.484375 2.3125q-1.078125 0.8125 -2.765625 0.8125q-2.125 0 -3.375 -1.296875q-1.234375 -1.3125 -1.234375 -3.671875q0 -2.453125 1.25 -3.796875q1.265625 -1.34375 3.265625 -1.34375q1.9375 0 3.15625 1.328125q1.234375 1.3125 1.234375 3.703125q0 0.15625 0 0.4375l-7.21875 0q0.09375 1.59375 0.90625 2.453125q0.8125 0.84375 2.015625 0.84375q0.90625 0 1.546875 -0.46875q0.640625 -0.484375 1.015625 -1.515625zm-5.390625 -2.65625l5.40625 0q-0.109375 -1.21875 -0.625 -1.828125q-0.78125 -0.953125 -2.03125 -0.953125q-1.125 0 -1.90625 0.765625q-0.765625 0.75 -0.84375 2.015625zm15.453857 4.578125q-0.921875 0.765625 -1.765625 1.09375q-0.828125 0.3125 -1.796875 0.3125q-1.59375 0 -2.453125 -0.78125q-0.859375 -0.78125 -0.859375 -1.984375q0 -0.71875 0.328125 -1.296875q0.328125 -0.59375 0.84375 -0.9375q0.53125 -0.359375 1.1875 -0.546875q0.46875 -0.125 1.453125 -0.25q1.984375 -0.234375 2.921875 -0.5625q0.015625 -0.34375 0.015625 -0.421875q0 -1.0 -0.46875 -1.421875q-0.625 -0.546875 -1.875 -0.546875q-1.15625 0 -1.703125 0.40625q-0.546875 0.40625 -0.8125 1.421875l-1.609375 -0.21875q0.21875 -1.015625 0.71875 -1.640625q0.5 -0.640625 1.453125 -0.984375q0.953125 -0.34375 2.1875 -0.34375q1.25 0 2.015625 0.296875q0.78125 0.28125 1.140625 0.734375q0.375 0.4375 0.515625 1.109375q0.078125 0.421875 0.078125 1.515625l0 2.1875q0 2.28125 0.109375 2.890625q0.109375 0.59375 0.40625 1.15625l-1.703125 0q-0.265625 -0.515625 -0.328125 -1.1875zm-0.140625 -3.671875q-0.890625 0.375 -2.671875 0.625q-1.015625 0.140625 -1.4375 0.328125q-0.421875 0.1875 -0.65625 0.53125q-0.21875 0.34375 -0.21875 0.78125q0 0.65625 0.5 1.09375q0.5 0.4375 1.453125 0.4375q0.9375 0 1.671875 -0.40625q0.75 -0.421875 1.09375 -1.140625q0.265625 -0.5625 0.265625 -1.640625l0 -0.609375zm4.2037964 4.859375l0 -9.671875l1.46875 0l0 1.359375q0.453125 -0.71875 1.203125 -1.140625q0.765625 -0.4375 1.71875 -0.4375q1.078125 0 1.765625 0.453125q0.6875 0.4375 0.96875 1.234375q1.15625 -1.6875 2.984375 -1.6875q1.453125 0 2.21875 0.796875q0.78125 0.796875 0.78125 2.453125l0 6.640625l-1.640625 0l0 -6.09375q0 -0.984375 -0.15625 -1.40625q-0.15625 -0.4375 -0.578125 -0.703125q-0.421875 -0.265625 -0.984375 -0.265625q-1.015625 0 -1.6875 0.6875q-0.671875 0.671875 -0.671875 2.15625l0 5.625l-1.640625 0l0 -6.28125q0 -1.09375 -0.40625 -1.640625q-0.40625 -0.546875 -1.3125 -0.546875q-0.6875 0 -1.28125 0.359375q-0.59375 0.359375 -0.859375 1.0625q-0.25 0.703125 -0.25 2.03125l0 5.015625l-1.640625 0zm15.5408325 -11.46875l0 -1.890625l1.640625 0l0 1.890625l-1.640625 0zm0 11.46875l0 -9.671875l1.640625 0l0 9.671875l-1.640625 0zm4.1448364 0l0 -9.671875l1.46875 0l0 1.375q1.0625 -1.59375 3.078125 -1.59375q0.875 0 1.609375 0.3125q0.734375 0.3125 1.09375 0.828125q0.375 0.5 0.515625 1.203125q0.09375 0.453125 0.09375 1.59375l0 5.953125l-1.640625 0l0 -5.890625q0 -1.0 -0.203125 -1.484375q-0.1875 -0.5 -0.671875 -0.796875q-0.484375 -0.296875 -1.140625 -0.296875q-1.046875 0 -1.8125 0.671875q-0.75 0.65625 -0.75 2.515625l0 5.28125l-1.640625 0zm10.063171 0.796875l1.59375 0.234375q0.109375 0.75 0.5625 1.078125q0.609375 0.453125 1.671875 0.453125q1.140625 0 1.75 -0.453125q0.625 -0.453125 0.84375 -1.265625q0.125 -0.5 0.109375 -2.109375q-1.0625 1.265625 -2.671875 1.265625q-2.0 0 -3.09375 -1.4375q-1.09375 -1.4375 -1.09375 -3.453125q0 -1.390625 0.5 -2.5625q0.515625 -1.171875 1.453125 -1.796875q0.953125 -0.640625 2.25 -0.640625q1.703125 0 2.8125 1.375l0 -1.15625l1.515625 0l0 8.359375q0 2.265625 -0.46875 3.203125q-0.453125 0.9375 -1.453125 1.484375q-0.984375 0.546875 -2.453125 0.546875q-1.71875 0 -2.796875 -0.78125q-1.0625 -0.765625 -1.03125 -2.34375zm1.359375 -5.8125q0 1.90625 0.75 2.78125q0.765625 0.875 1.90625 0.875q1.125 0 1.890625 -0.859375q0.765625 -0.875 0.765625 -2.734375q0 -1.78125 -0.796875 -2.671875q-0.78125 -0.90625 -1.890625 -0.90625q-1.09375 0 -1.859375 0.890625q-0.765625 0.875 -0.765625 2.625z" fill-rule="nonzero"/><path fill="#000000" fill-opacity="0.0" d="m346.68286 169.35162l121.921265 0l0 53.51181l-121.921265 0z" fill-rule="evenodd"/><path fill="#000000" d="m369.33215 196.27162l-5.171875 -13.359375l1.921875 0l3.46875 9.703125q0.421875 1.171875 0.703125 2.1875q0.3125 -1.09375 0.71875 -2.1875l3.609375 -9.703125l1.796875 0l-5.234375 13.359375l-1.8125 0zm14.02301 -3.109375l1.6875 0.203125q-0.40625 1.484375 -1.484375 2.3125q-1.078125 0.8125 -2.765625 0.8125q-2.125 0 -3.375 -1.296875q-1.234375 -1.3125 -1.234375 -3.671875q0 -2.453125 1.25 -3.796875q1.265625 -1.34375 3.265625 -1.34375q1.9375 0 3.15625 1.328125q1.234375 1.3125 1.234375 3.703125q0 0.15625 0 0.4375l-7.21875 0q0.09375 1.59375 0.90625 2.453125q0.8125 0.84375 2.015625 0.84375q0.90625 0 1.546875 -0.46875q0.640625 -0.484375 1.015625 -1.515625zm-5.390625 -2.65625l5.40625 0q-0.109375 -1.21875 -0.625 -1.828125q-0.78125 -0.953125 -2.03125 -0.953125q-1.125 0 -1.90625 0.765625q-0.765625 0.75 -0.84375 2.015625zm9.125702 5.765625l0 -9.671875l1.46875 0l0 1.46875q0.5625 -1.03125 1.03125 -1.359375q0.484375 -0.328125 1.0625 -0.328125q0.828125 0 1.6875 0.53125l-0.5625 1.515625q-0.609375 -0.359375 -1.203125 -0.359375q-0.546875 0 -0.96875 0.328125q-0.421875 0.328125 -0.609375 0.890625q-0.28125 0.875 -0.28125 1.921875l0 5.0625l-1.625 0zm5.572052 -2.890625l1.625 -0.25q0.125 0.96875 0.75 1.5q0.625 0.515625 1.75 0.515625q1.125 0 1.671875 -0.453125q0.546875 -0.46875 0.546875 -1.09375q0 -0.546875 -0.484375 -0.875q-0.328125 -0.21875 -1.671875 -0.546875q-1.8125 -0.46875 -2.515625 -0.796875q-0.6875 -0.328125 -1.046875 -0.90625q-0.359375 -0.59375 -0.359375 -1.3125q0 -0.640625 0.296875 -1.1875q0.296875 -0.5625 0.8125 -0.921875q0.375 -0.28125 1.03125 -0.46875q0.671875 -0.203125 1.421875 -0.203125q1.140625 0 2.0 0.328125q0.859375 0.328125 1.265625 0.890625q0.421875 0.5625 0.578125 1.5l-1.609375 0.21875q-0.109375 -0.75 -0.640625 -1.171875q-0.515625 -0.421875 -1.46875 -0.421875q-1.140625 0 -1.625 0.375q-0.46875 0.375 -0.46875 0.875q0 0.3125 0.1875 0.578125q0.203125 0.265625 0.640625 0.4375q0.234375 0.09375 1.4375 0.421875q1.75 0.453125 2.4375 0.75q0.6875 0.296875 1.078125 0.859375q0.390625 0.5625 0.390625 1.40625q0 0.828125 -0.484375 1.546875q-0.46875 0.71875 -1.375 1.125q-0.90625 0.390625 -2.046875 0.390625q-1.875 0 -2.875 -0.78125q-0.984375 -0.78125 -1.25 -2.328125zm9.984375 -8.578125l0 -1.890625l1.640625 0l0 1.890625l-1.640625 0zm0 11.46875l0 -9.671875l1.640625 0l0 9.671875l-1.640625 0zm3.5354614 -4.84375q0 -2.6875 1.484375 -3.96875q1.25 -1.078125 3.046875 -1.078125q2.0 0 3.265625 1.3125q1.265625 1.296875 1.265625 3.609375q0 1.859375 -0.5625 2.9375q-0.5625 1.0625 -1.640625 1.65625q-1.0625 0.59375 -2.328125 0.59375q-2.03125 0 -3.28125 -1.296875q-1.25 -1.3125 -1.25 -3.765625zm1.6875 0q0 1.859375 0.796875 2.796875q0.8125 0.921875 2.046875 0.921875q1.21875 0 2.03125 -0.921875q0.8125 -0.9375 0.8125 -2.84375q0 -1.796875 -0.8125 -2.71875q-0.8125 -0.921875 -2.03125 -0.921875q-1.234375 0 -2.046875 0.921875q-0.796875 0.90625 -0.796875 2.765625zm9.297607 4.84375l0 -9.671875l1.46875 0l0 1.375q1.0625 -1.59375 3.078125 -1.59375q0.875 0 1.609375 0.3125q0.734375 0.3125 1.09375 0.828125q0.375 0.5 0.515625 1.203125q0.09375 0.453125 0.09375 1.59375l0 5.953125l-1.640625 0l0 -5.890625q0 -1.0 -0.203125 -1.484375q-0.1875 -0.5 -0.671875 -0.796875q-0.484375 -0.296875 -1.140625 -0.296875q-1.046875 0 -1.8125 0.671875q-0.75 0.65625 -0.75 2.515625l0 5.28125l-1.640625 0zm10.375702 -11.46875l0 -1.890625l1.640625 0l0 1.890625l-1.640625 0zm0 11.46875l0 -9.671875l1.640625 0l0 9.671875l-1.640625 0zm4.1448364 0l0 -9.671875l1.46875 0l0 1.375q1.0625 -1.59375 3.078125 -1.59375q0.875 0 1.609375 0.3125q0.734375 0.3125 1.09375 0.828125q0.375 0.5 0.515625 1.203125q0.09375 0.453125 0.09375 1.59375l0 5.953125l-1.640625 0l0 -5.890625q0 -1.0 -0.203125 -1.484375q-0.1875 -0.5 -0.671875 -0.796875q-0.484375 -0.296875 -1.140625 -0.296875q-1.046875 0 -1.8125 0.671875q-0.75 0.65625 -0.75 2.515625l0 5.28125l-1.640625 0zm10.063202 0.796875l1.59375 0.234375q0.109375 0.75 0.5625 1.078125q0.609375 0.453125 1.671875 0.453125q1.140625 0 1.75 -0.453125q0.625 -0.453125 0.84375 -1.265625q0.125 -0.5 0.109375 -2.109375q-1.0625 1.265625 -2.671875 1.265625q-2.0 0 -3.09375 -1.4375q-1.09375 -1.4375 -1.09375 -3.453125q0 -1.390625 0.5 -2.5625q0.515625 -1.171875 1.453125 -1.796875q0.953125 -0.640625 2.25 -0.640625q1.703125 0 2.8125 1.375l0 -1.15625l1.515625 0l0 8.359375q0 2.265625 -0.46875 3.203125q-0.453125 0.9375 -1.453125 1.484375q-0.984375 0.546875 -2.453125 0.546875q-1.71875 0 -2.796875 -0.78125q-1.0625 -0.765625 -1.03125 -2.34375zm1.359375 -5.8125q0 1.90625 0.75 2.78125q0.765625 0.875 1.90625 0.875q1.125 0 1.890625 -0.859375q0.765625 -0.875 0.765625 -2.734375q0 -1.78125 -0.796875 -2.671875q-0.78125 -0.90625 -1.890625 -0.90625q-1.09375 0 -1.859375 0.890625q-0.765625 0.875 -0.765625 2.625z" fill-rule="nonzero"/><path fill="#000000" fill-opacity="0.0" d="m19.412521 201.96588l121.921265 0l0 53.51181l-121.921265 0z" fill-rule="evenodd"/><path fill="#000000" d="m64.01096 228.88588l2.78125 -13.359375l1.78125 0l-2.46875 11.84375l6.9375 0l-0.3125 1.515625l-8.71875 0zm10.531967 -3.671875q0 -2.828125 1.671875 -4.6875q1.375 -1.53125 3.609375 -1.53125q1.75 0 2.8125 1.09375q1.0781174 1.09375 1.0781174 2.953125q0 1.65625 -0.6718674 3.09375q-0.671875 1.4375 -1.921875 2.203125q-1.25 0.765625 -2.625 0.765625q-1.125 0 -2.046875 -0.484375q-0.921875 -0.484375 -1.421875 -1.359375q-0.484375 -0.890625 -0.484375 -2.046875zm1.65625 -0.15625q0 1.359375 0.65625 2.0625q0.65625 0.703125 1.65625 0.703125q0.53125 0 1.046875 -0.203125q0.53125 -0.21875 0.96875 -0.65625q0.453125 -0.4375 0.765625 -1.0q0.3125 -0.5625 0.5 -1.203125q0.28125 -0.90625 0.28125 -1.734375q0 -1.3125 -0.65625 -2.03125q-0.65625 -0.734375 -1.65625 -0.734375q-0.78125 0 -1.421875 0.375q-0.625 0.375 -1.140625 1.09375q-0.515625 0.703125 -0.765625 1.640625q-0.234375 0.9375 -0.234375 1.6875zm10.266335 3.828125l-1.0 -9.671875l1.578125 0l0.4375 4.34375l0.171875 2.4375q0.015625 0.28125 0.0625 1.109375q0.265625 -0.9375 0.453125 -1.421875q0.203125 -0.5 0.609375 -1.421875l2.3125 -5.046875l1.796875 0l0.3125 4.828125q0.078125 1.109375 0.09375 2.953125q0.453125 -1.21875 1.484375 -3.390625l2.078125 -4.390625l1.65625 0l-4.734375 9.671875l-1.71875 0l-0.359375 -5.671875q-0.03125 -0.53125 -0.046875 -2.0625q-0.375 0.96875 -0.890625 2.109375l-2.5625 5.625l-1.734375 0z" fill-rule="nonzero"/><path fill="#000000" fill-opacity="0.0" d="m647.64087 201.96588l121.921265 0l0 53.51181l-121.921265 0z" fill-rule="evenodd"/><path fill="#000000" d="m690.1981 228.88588l2.796875 -13.359375l1.78125 0l-1.15625 5.546875l6.921875 0l1.15625 -5.546875l1.78125 0l-2.78125 13.359375l-1.796875 0l1.3125 -6.296875l-6.90625 0l-1.328125 6.296875l-1.78125 0zm15.644836 -11.484375l0.40625 -1.875l1.625 0l-0.390625 1.875l-1.640625 0zm-2.390625 11.484375l2.015625 -9.671875l1.65625 0l-2.03125 9.671875l-1.640625 0zm4.1135864 0.875l1.671875 0.15625q-0.03125 0.5625 0.125 0.84375q0.15625 0.28125 0.5 0.4375q0.4375 0.203125 1.15625 0.203125q1.484375 0 2.140625 -0.78125q0.4375 -0.515625 0.796875 -2.25l0.171875 -0.78125q-1.296875 1.296875 -2.734375 1.296875q-1.46875 0 -2.46875 -1.078125q-0.984375 -1.078125 -0.984375 -3.0625q0 -1.625 0.78125 -2.984375q0.78125 -1.375 1.859375 -2.0625q1.078125 -0.703125 2.203125 -0.703125q1.90625 0 2.9375 1.796875l0.328125 -1.578125l1.515625 0l-1.953125 9.328125q-0.3125 1.546875 -0.84375 2.40625q-0.515625 0.859375 -1.4375 1.328125q-0.921875 0.484375 -2.140625 0.484375q-1.15625 0 -2.0 -0.3125q-0.84375 -0.296875 -1.265625 -0.875q-0.40625 -0.578125 -0.40625 -1.328125q0 -0.21875 0.046875 -0.484375zm2.0625 -5.15625q0 1.0 0.1875 1.5q0.265625 0.6875 0.765625 1.0625q0.515625 0.375 1.140625 0.375q0.8125 0 1.609375 -0.5625q0.796875 -0.578125 1.296875 -1.765625q0.5 -1.203125 0.5 -2.28125q0 -1.203125 -0.671875 -1.90625q-0.65625 -0.703125 -1.625 -0.703125q-0.609375 0 -1.171875 0.328125q-0.5625 0.3125 -1.046875 0.984375q-0.484375 0.65625 -0.734375 1.578125q-0.25 0.921875 -0.25 1.390625zm8.406982 4.28125l2.78125 -13.359375l1.65625 0l-1.078125 5.140625q0.921875 -0.90625 1.71875 -1.28125q0.796875 -0.390625 1.625 -0.390625q1.203125 0 1.859375 0.640625q0.671875 0.625 0.671875 1.65625q0 0.515625 -0.28125 1.875l-1.203125 5.71875l-1.640625 0l1.234375 -5.859375q0.25 -1.265625 0.25 -1.59375q0 -0.484375 -0.328125 -0.78125q-0.328125 -0.296875 -0.9375 -0.296875q-0.890625 0 -1.703125 0.46875q-0.8125 0.46875 -1.28125 1.28125q-0.453125 0.8125 -0.828125 2.625l-0.875 4.15625l-1.640625 0z" fill-rule="nonzero"/><path fill="#000000" fill-opacity="0.0" d="m408.92566 41.716457l-1.2913513 98.83464" fill-rule="evenodd"/><path stroke="#ff0000" stroke-width="4.0" stroke-linejoin="round" stroke-linecap="butt" d="m408.92566 41.716457l-0.9777832 74.836685" fill-rule="evenodd"/><path fill="#ff0000" stroke="#ff0000" stroke-width="4.0" stroke-linecap="butt" d="m401.3415 116.466835l6.3692017 18.23716l6.8435364 -18.06453z" fill-rule="evenodd"/><path fill="#000000" fill-opacity="0.0" d="m43.350845 163.70071l0 -161.95276" fill-rule="evenodd"/><path stroke="#000000" stroke-width="3.0" stroke-linejoin="round" stroke-linecap="butt" d="m43.350845 163.70071l0 -161.95276" fill-rule="evenodd"/><path fill="#000000" fill-opacity="0.0" d="m2.191601 170.58267l0 -177.29134l43.496063 0l0 177.29134z" fill-rule="evenodd"/><path fill="#000000" d="m29.111599 160.70767l-13.359375 -2.796875l0 -5.609375q0 -1.65625 0.28125 -2.5q0.28125 -0.859375 1.046875 -1.34375q0.765625 -0.5 1.921875 -0.5q1.640625 0 2.71875 1.078125q1.0625 1.0625 1.390625 3.4375q0.53125 -0.734375 1.046875 -1.109375q1.1875 -0.828125 2.4375 -1.34375l2.515625 -1.015625l0 2.0l-2.484375 0.953125q-1.34375 0.515625 -2.328125 1.1875q-0.6875 0.453125 -0.90625 0.921875q-0.21875 0.46875 -0.21875 1.546875l0 2.0625l5.9375 1.25l0 1.78125zm-7.375 -3.328125l0 -2.46875q0 -1.703125 -0.046875 -2.234375q-0.109375 -1.0 -0.453125 -1.640625q-0.359375 -0.65625 -0.953125 -1.015625q-0.609375 -0.359375 -1.296875 -0.359375q-0.59375 0 -1.015625 0.265625q-0.4375 0.265625 -0.59375 0.703125q-0.15625 0.421875 -0.15625 1.453125l0 4.359375l4.515625 0.9375zm4.09375 -16.988571l0.15625 -1.609375q1.1875 0.34375 2.265625 1.59375q1.078125 1.234375 1.078125 2.96875q0 1.0625 -0.5 1.96875q-0.5 0.890625 -1.4375 1.359375q-0.953125 0.46875 -2.15625 0.46875q-1.59375 0 -3.078125 -0.734375q-1.484375 -0.734375 -2.203125 -1.890625q-0.734375 -1.171875 -0.734375 -2.53125q0 -1.734375 1.078125 -2.765625q1.0625 -1.03125 2.921875 -1.03125q0.71875 0 1.46875 0.125l0 7.125q0.28125 0.046875 0.5 0.046875q1.359375 0 2.078125 -0.625q0.71875 -0.625 0.71875 -1.53125q0 -0.84375 -0.546875 -1.65625q-0.5625 -0.828125 -1.609375 -1.28125zm-2.40625 4.78125l0 -5.421875q-0.25 -0.015625 -0.359375 -0.015625q-1.234375 0 -1.890625 0.625q-0.671875 0.625 -0.671875 1.59375q0 1.0625 0.734375 1.9375q0.71875 0.859375 2.1875 1.28125zm2.375 -8.219467l-0.09375 -1.640625q0.703125 0 1.21875 -0.21875q0.5 -0.21875 0.8125 -0.796875q0.3125 -0.59375 0.3125 -1.375q0 -1.09375 -0.4375 -1.640625q-0.4375 -0.546875 -1.015625 -0.546875q-0.4375 0 -0.8125 0.328125q-0.390625 0.328125 -0.953125 1.640625q-0.5625 1.3125 -0.78125 1.671875q-0.375 0.609375 -0.875 0.921875q-0.515625 0.3125 -1.171875 0.3125q-1.140625 0 -1.953125 -0.90625q-0.828125 -0.921875 -0.828125 -2.5625q0 -1.828125 0.84375 -2.765625q0.84375 -0.953125 2.21875 -1.0l0.109375 1.609375q-0.875 0.046875 -1.390625 0.625q-0.515625 0.578125 -0.515625 1.65625q0 0.84375 0.40625 1.328125q0.390625 0.46875 0.84375 0.46875q0.453125 0 0.796875 -0.40625q0.234375 -0.28125 0.734375 -1.421875q0.8125 -1.890625 1.28125 -2.375q0.765625 -0.78125 1.84375 -0.78125q0.71875 0 1.421875 0.4375q0.6875 0.4375 1.109375 1.34375q0.40625 0.90625 0.40625 2.140625q0 1.671875 -0.828125 2.84375q-0.828125 1.1875 -2.703125 1.109375zm0.03125 -16.265617l0.15625 -1.609375q1.1875 0.34375 2.265625 1.59375q1.078125 1.234375 1.078125 2.96875q0 1.0625 -0.5 1.96875q-0.5 0.890625 -1.4375 1.359375q-0.953125 0.46875 -2.15625 0.46875q-1.59375 0 -3.078125 -0.734375q-1.484375 -0.734375 -2.203125 -1.890625q-0.734375 -1.171875 -0.734375 -2.53125q0 -1.734375 1.078125 -2.765625q1.0625 -1.03125 2.921875 -1.03125q0.71875 0 1.46875 0.125l0 7.125q0.28125 0.046875 0.5 0.046875q1.359375 0 2.078125 -0.625q0.71875 -0.625 0.71875 -1.53125q0 -0.84375 -0.546875 -1.65625q-0.5625 -0.828125 -1.609375 -1.28125zm-2.40625 4.78125l0 -5.421875q-0.25 -0.015625 -0.359375 -0.015625q-1.234375 0 -1.890625 0.625q-0.671875 0.625 -0.671875 1.59375q0 1.0625 0.734375 1.9375q0.71875 0.859375 2.1875 1.28125zm4.484375 -14.578842q0.734375 0.859375 1.078125 1.65625q0.34375 0.78125 0.34375 1.6875q0 1.34375 -0.78125 2.171875q-0.796875 0.8125 -2.03125 0.8125q-0.796875 0 -1.421875 -0.375q-0.625 -0.375 -1.0 -0.984375q-0.390625 -0.609375 -0.546875 -1.484375q-0.109375 -0.5625 -0.171875 -2.109375q-0.0625 -1.5625 -0.328125 -2.234375q-0.671875 -0.1875 -1.125 -0.1875q-0.578125 0 -0.90625 0.421875q-0.453125 0.5625 -0.453125 1.671875q0 1.03125 0.46875 1.703125q0.453125 0.65625 1.296875 0.953125l-0.140625 1.671875q-1.4375 -0.515625 -2.203125 -1.609375q-0.765625 -1.109375 -0.765625 -2.796875q0 -1.796875 0.859375 -2.84375q0.625 -0.796875 1.65625 -0.796875q0.765625 0 1.796875 0.21875l2.40625 0.53125q1.140625 0.265625 1.859375 0.265625q0.453125 0 1.3125 -0.203125l0 1.671875q-0.46875 0.125 -1.203125 0.1875zm-3.703125 -0.609375q0.140625 0.34375 0.21875 0.75q0.0625 0.390625 0.15625 1.3125q0.125 1.4375 0.328125 2.03125q0.1875 0.59375 0.625 0.90625q0.421875 0.296875 0.9375 0.296875q0.6875 0 1.140625 -0.484375q0.4375 -0.484375 0.4375 -1.359375q0 -0.828125 -0.421875 -1.578125q-0.4375 -0.75 -1.203125 -1.1875q-0.78125 -0.4375 -2.21875 -0.6875zm4.90625 -3.2507172l-9.671875 -2.015625l0 -1.453125l1.96875 0.40625q-1.109375 -0.75 -1.640625 -1.453125q-0.546875 -0.71875 -0.546875 -1.46875q0 -0.5 0.359375 -1.21875l1.53125 0.671875q-0.3125 0.4375 -0.3125 0.9375q0 0.875 0.96875 1.78125q0.953125 0.90625 3.46875 1.4375l3.875 0.8125l0 1.5625zm-3.53125 -12.884552l0.171875 -1.65625q1.8125 0.625 2.703125 1.765625q0.875 1.140625 0.875 2.609375q0 1.578125 -1.015625 2.5625q-1.03125 0.96875 -2.859375 0.96875q-1.578125 0 -3.109375 -0.625q-1.53125 -0.640625 -2.328125 -1.796875q-0.796875 -1.171875 -0.796875 -2.6875q0 -1.546875 0.875 -2.453125q0.875 -0.921875 2.328125 -0.921875l0.109375 1.625q-0.921875 0.015625 -1.4375 0.546875q-0.515625 0.515625 -0.515625 1.359375q0 1.0 0.625 1.734375q0.625 0.71875 1.90625 1.140625q1.28125 0.40625 2.46875 0.40625q1.234375 0 1.859375 -0.546875q0.609375 -0.546875 0.609375 -1.34375q0 -0.796875 -0.609375 -1.53125q-0.609375 -0.734375 -1.859375 -1.15625zm3.53125 -2.65625l-13.359375 -2.78125l0 -1.65625l5.140625 1.078125q-0.90625 -0.921875 -1.28125 -1.71875q-0.390625 -0.796875 -0.390625 -1.625q0 -1.203125 0.640625 -1.859375q0.625 -0.671875 1.65625 -0.671875q0.515625 0 1.875 0.28125l5.71875 1.203125l0 1.640625l-5.859375 -1.234375q-1.265625 -0.25 -1.59375 -0.25q-0.484375 0 -0.78125 0.328125q-0.296875 0.328125 -0.296875 0.9375q0 0.890625 0.46875 1.703125q0.46875 0.8125 1.28125 1.28125q0.8125 0.453125 2.625 0.828125l4.15625 0.875l0 1.640625zm-1.203125 -22.074646q0.734375 0.859375 1.078125 1.65625q0.34375 0.78125 0.34375 1.6875q0 1.34375 -0.78125 2.171875q-0.796875 0.8125 -2.03125 0.8125q-0.796875 0 -1.421875 -0.375q-0.625 -0.375 -1.0 -0.984375q-0.390625 -0.609375 -0.546875 -1.484375q-0.109375 -0.5625 -0.171875 -2.109375q-0.0625 -1.5625 -0.328125 -2.234375q-0.671875 -0.1875 -1.125 -0.1875q-0.578125 0 -0.90625 0.421875q-0.453125 0.5625 -0.453125 1.671875q0 1.03125 0.46875 1.703125q0.453125 0.65625 1.296875 0.953125l-0.140625 1.671875q-1.4375 -0.515625 -2.203125 -1.609375q-0.765625 -1.109375 -0.765625 -2.796875q0 -1.796875 0.859375 -2.84375q0.625 -0.796875 1.65625 -0.796875q0.765625 0 1.796875 0.21875l2.40625 0.53125q1.140625 0.265625 1.859375 0.265625q0.453125 0 1.3125 -0.203125l0 1.671875q-0.46875 0.125 -1.203125 0.1875zm-3.703125 -0.609375q0.140625 0.34375 0.21875 0.75q0.0625 0.390625 0.15625 1.3125q0.125 1.4375 0.328125 2.03125q0.1875 0.59375 0.625 0.90625q0.421875 0.296875 0.9375 0.296875q0.6875 0 1.140625 -0.484375q0.4375 -0.484375 0.4375 -1.359375q0 -0.828125 -0.421875 -1.578125q-0.4375 -0.75 -1.203125 -1.1875q-0.78125 -0.4375 -2.21875 -0.6875zm3.5625 -7.094471l1.359375 0.265625q0.140625 0.59375 0.140625 1.15625q0 0.9843788 -0.46875 1.5625038q-0.375 0.4375 -1.0 0.4375q-0.3125 0 -1.46875 -0.234375l-5.625 -1.1718788l0 1.2968788l-1.265625 -0.265625l0 -1.2968788l-2.375 -0.5l-1.140625 -1.890625l3.515625 0.734375l0 -1.625l1.265625 0.28125l0 1.609375l5.359375 1.125q1.015625 0.203125 1.21875 0.203125q0.28125 0 0.4375 -0.15625q0.15625 -0.171875 0.15625 -0.5625q0 -0.546875 -0.109375 -0.96875zm0 -5.183304l1.359375 0.265625q0.140625 0.59375 0.140625 1.15625q0 0.984375 -0.46875 1.5625q-0.375 0.4375 -1.0 0.4375q-0.3125 0 -1.46875 -0.234375l-5.625 -1.171875l0 1.296875l-1.265625 -0.265625l0 -1.296875l-2.375 -0.5l-1.140625 -1.890625l3.515625 0.734375l0 -1.625l1.265625 0.28125l0 1.609375l5.359375 1.125q1.015625 0.203125 1.21875 0.203125q0.28125 0 0.4375 -0.15625q0.15625 -0.171875 0.15625 -0.5625q0 -0.546875 -0.109375 -0.96875zm-1.9375 -8.433304l0.15625 -1.609375q1.1875 0.34375 2.265625 1.59375q1.078125 1.234375 1.078125 2.96875q0 1.0625 -0.5 1.96875q-0.5 0.890625 -1.4375 1.359375q-0.953125 0.46875 -2.15625 0.46875q-1.59375 0 -3.078125 -0.734375q-1.484375 -0.734375 -2.203125 -1.890625q-0.734375 -1.171875 -0.734375 -2.53125q0 -1.734375 1.078125 -2.765625q1.0625 -1.03125 2.921875 -1.03125q0.71875 0 1.46875 0.125l0 7.125q0.28125 0.046875 0.5 0.046875q1.359375 0 2.078125 -0.625q0.71875 -0.625 0.71875 -1.53125q0 -0.84375 -0.546875 -1.65625q-0.5625 -0.828125 -1.609375 -1.28125zm-2.40625 4.78125l0 -5.421875q-0.25 -0.015625 -0.359375 -0.015625q-1.234375 0 -1.890625 0.625q-0.671875 0.625 -0.671875 1.59375q0 1.0625 0.734375 1.9375q0.71875 0.859375 2.1875 1.28125zm5.6875 -8.063217l-9.671875 -2.015625l0 -1.5l1.6875 0.359375q-1.0 -0.96875 -1.453125 -1.8125q-0.453125 -0.859375 -0.453125 -1.734375q0 -1.1875 0.640625 -1.84375q0.625 -0.671875 1.703125 -0.671875q0.53125 0 1.6875 0.234375l5.859375 1.234375l0 1.640625l-6.125 -1.28125q-0.890625 -0.1875 -1.328125 -0.1875q-0.484375 0 -0.78125 0.328125q-0.296875 0.328125 -0.296875 0.953125q0 1.28125 0.90625 2.265625q0.90625 0.984375 3.125 1.453125l4.5 0.9375l0 1.640625zm-1.34375 -14.219465l1.359375 0.265625q0.140625 0.59375 0.140625 1.1562481q0 0.984375 -0.46875 1.5625q-0.375 0.4375 -1.0 0.4375q-0.3125 0 -1.46875 -0.234375l-5.625 -1.171875l0 1.296875l-1.265625 -0.265625l0 -1.296875l-2.375 -0.4999981l-1.140625 -1.890625l3.515625 0.734375l0 -1.625l1.265625 0.28125l0 1.609375l5.359375 1.1249981q1.015625 0.203125 1.21875 0.203125q0.28125 0 0.4375 -0.15625q0.15625 -0.1718731 0.15625 -0.5624981q0 -0.546875 -0.109375 -0.96875zm-10.140625 -3.6676788l-1.875 -0.40625l0 -1.625l1.875 0.390625l0 1.640625zm11.484375 2.390625l-9.671875 -2.015625l0 -1.65625l9.671875 2.03125l0 1.640625zm-3.671875 -4.488571q-2.828125 0 -4.6875 -1.671875q-1.53125 -1.375 -1.53125 -3.609375q0 -1.75 1.09375 -2.8125q1.09375 -1.078126 2.953125 -1.078126q1.65625 0 3.09375 0.67187595q1.4375 0.671875 2.203125 1.921875q0.765625 1.25 0.765625 2.625q0 1.125 -0.484375 2.046875q-0.484375 0.921875 -1.359375 1.421875q-0.890625 0.484375 -2.046875 0.484375zm-0.15625 -1.65625q1.359375 0 2.0625 -0.65625q0.703125 -0.65625 0.703125 -1.65625q0 -0.53125 -0.203125 -1.046875q-0.21875 -0.53125 -0.65625 -0.96875q-0.4375 -0.453125 -1.0 -0.765625q-0.5625 -0.3125 -1.203125 -0.5q-0.90625 -0.28125 -1.734375 -0.28125q-1.3125 0 -2.03125 0.65625q-0.734375 0.65625 -0.734375 1.65625q0 0.78125 0.375 1.421875q0.375 0.625 1.09375 1.140625q0.703125 0.515625 1.640625 0.765625q0.9375 0.234375 1.6875 0.234375zm3.828125 -8.438218l-9.671875 -2.015625l0 -1.5l1.6875 0.359375q-1.0 -0.96875 -1.453125 -1.8125q-0.453125 -0.859375 -0.453125 -1.734375q0 -1.1874995 0.640625 -1.8437495q0.625 -0.671875 1.703125 -0.671875q0.53125 0 1.6875 0.234375l5.859375 1.234375l0 1.6406245l-6.125 -1.2812495q-0.890625 -0.1875 -1.328125 -0.1875q-0.484375 0 -0.78125 0.328125q-0.296875 0.328125 -0.296875 0.9531245q0 1.28125 0.90625 2.265625q0.90625 0.984375 3.125 1.453125l4.5 0.9375l0 1.640625z" fill-rule="nonzero"/></g></svg>